<?xml version="1.0" encoding="UTF-8"?>
<!DOCTYPE svg PUBLIC "-//W3C//DTD SVG 1.0//EN" "http://www.w3.org/TR/2001/REC-SVG-20010904/DTD/svg10.dtd">
<!-- Creator: CorelDRAW 2017 -->
<svg xmlns="http://www.w3.org/2000/svg" xml:space="preserve" width="740px" height="450px" version="1.0" style="shape-rendering:geometricPrecision; text-rendering:geometricPrecision; image-rendering:optimizeQuality; fill-rule:evenodd; clip-rule:evenodd"
viewBox="0 0 82.14 49.95"
 xmlns:xlink="http://www.w3.org/1999/xlink">
 <defs>
  <style type="text/css">
   <![CDATA[
    .fil0 {fill:#FEFEFE}
    .fil1 {fill:#0064B4;fill-rule:nonzero}
   ]]>
  </style>
 </defs>
 <g id="Слой_x0020_1">
  <metadata id="CorelCorpID_0Corel-Layer"/>
  <g id="_2602582097792">
   <rect class="fil0" width="82.14" height="49.95"/>
   <polygon class="fil1" points="6.05,25.09 6.05,23.13 16.95,23.13 16.95,25.09 "/>
   <path id="1" class="fil1" d="M38.13 29.96c0,1.77 -0.15,3.29 -0.44,4.55 -0.29,1.27 -0.91,2.37 -1.85,3.31 -1.42,1.42 -3.32,2.13 -5.71,2.13 -2.52,0 -4.42,-0.67 -5.7,-2 -1.16,-1.17 -1.83,-2.78 -2,-4.83l2.13 0c0.47,3.3 2.33,4.95 5.57,4.95 1.72,0 3.08,-0.5 4.08,-1.5 0.56,-0.55 0.97,-1.24 1.25,-2.08 0.28,-0.83 0.44,-1.54 0.48,-2.14 0.04,-0.6 0.06,-1.4 0.06,-2.39 0,-1.06 -0.07,-2 -0.21,-2.83 -0.13,-0.84 -0.38,-1.66 -0.74,-2.48 -0.37,-0.82 -0.93,-1.46 -1.71,-1.92 -0.78,-0.45 -1.74,-0.68 -2.87,-0.68 -1.36,0 -2.52,0.27 -3.48,0.81 -0.96,0.54 -1.59,1.31 -1.89,2.31l-1.88 0 0 -15.15 14.24 0 0 1.87 -12.36 0 0 10.49c1.3,-1.47 3.17,-2.21 5.62,-2.21 2.13,0 3.8,0.6 4.99,1.79 1.61,1.61 2.42,4.28 2.42,8z"/>
   <path id="2" class="fil1" d="M70.49 34.37c0,1.66 -0.5,3.01 -1.51,4.04 -1.02,1.02 -2.33,1.54 -3.94,1.54 -1.64,0 -2.96,-0.52 -3.97,-1.54 -1.02,-1.03 -1.52,-2.38 -1.52,-4.04l0 -4.46c0,-1.66 0.5,-3.01 1.52,-4.03 1.01,-1.03 2.33,-1.54 3.97,-1.54 1.61,0 2.92,0.51 3.94,1.54 1.01,1.02 1.51,2.37 1.51,4.03l0 4.46zm-17.77 -14.61c0,1.63 -0.51,2.97 -1.52,3.99 -1.01,1.03 -2.32,1.54 -3.93,1.54 -1.64,0 -2.97,-0.51 -3.98,-1.54 -1.01,-1.02 -1.52,-2.36 -1.52,-3.99l0 -4.46c0,-1.66 0.51,-3.01 1.52,-4.03 1.01,-1.03 2.34,-1.55 3.98,-1.55 1.61,0 2.92,0.52 3.93,1.55 1.01,1.02 1.52,2.37 1.52,4.03l0 4.46zm15.94 10.24c0,-2.72 -1.2,-4.08 -3.62,-4.08 -2.44,0 -3.66,1.36 -3.66,4.08l0 4.28c0,2.72 1.22,4.08 3.66,4.08 2.42,0 3.62,-1.36 3.62,-4.08l0 -4.28zm-17.77 -14.61c0,-2.72 -1.21,-4.08 -3.62,-4.08 -2.45,0 -3.67,1.36 -3.67,4.08l0 4.28c0,2.7 1.22,4.04 3.67,4.04 2.41,0 3.62,-1.34 3.62,-4.04l0 -4.28zm-0.71 24.26l-1.87 0 13.82 -29.63 1.87 0 -13.82 29.63z"/>
  </g>
 </g>
</svg>
