<?xml version="1.0" encoding="UTF-8"?>
<!DOCTYPE svg PUBLIC "-//W3C//DTD SVG 1.0//EN" "http://www.w3.org/TR/2001/REC-SVG-20010904/DTD/svg10.dtd">
<!-- Creator: CorelDRAW 2017 -->
<svg xmlns="http://www.w3.org/2000/svg" xml:space="preserve" width="740px" height="450px" version="1.0" style="shape-rendering:geometricPrecision; text-rendering:geometricPrecision; image-rendering:optimizeQuality; fill-rule:evenodd; clip-rule:evenodd"
viewBox="0 0 63.86 38.83"
 xmlns:xlink="http://www.w3.org/1999/xlink">
 <defs>
  <style type="text/css">
   <![CDATA[
    .fil0 {fill:#FEFEFE}
    .fil1 {fill:#0064B4;fill-rule:nonzero}
   ]]>
  </style>
 </defs>
 <g id="Слой_x0020_1">
  <metadata id="CorelCorpID_0Corel-Layer"/>
  <g id="_2602580309824">
   <rect class="fil0" width="63.86" height="38.83"/>
   <polygon class="fil1" points="0.77,19.93 0.77,18.41 9.25,18.41 9.25,19.93 "/>
   <path id="1" class="fil1" d="M23.18 24.79c0,2 -0.61,3.57 -1.83,4.69 -1.21,1.12 -2.78,1.68 -4.7,1.68 -1.88,0 -3.41,-0.49 -4.6,-1.47 -1.19,-0.98 -1.84,-2.43 -1.97,-4.35l1.65 0c0.13,1.47 0.65,2.56 1.57,3.28 0.91,0.73 2.03,1.09 3.35,1.09 1.4,0 2.56,-0.44 3.49,-1.33 0.93,-0.88 1.39,-2.08 1.39,-3.59 0,-3.28 -1.67,-4.92 -5.01,-4.92l-0.39 0 0 -1.46 0.39 0c3.04,0 4.56,-1.54 4.56,-4.62 0,-1.47 -0.42,-2.61 -1.26,-3.43 -0.84,-0.82 -1.91,-1.23 -3.21,-1.23 -1.33,0 -2.4,0.37 -3.18,1.11 -0.79,0.75 -1.26,1.78 -1.41,3.09l-1.65 0c0.17,-1.77 0.82,-3.15 1.96,-4.16 1.13,-1 2.56,-1.5 4.28,-1.5 1.84,0 3.31,0.56 4.44,1.67 1.12,1.11 1.68,2.59 1.68,4.45 0,2.56 -1.09,4.31 -3.27,5.24 2.48,0.84 3.72,2.76 3.72,5.76z"/>
   <path id="2" class="fil1" d="M37.83 24.98c0,1.79 -0.56,3.27 -1.7,4.42 -1.13,1.15 -2.58,1.73 -4.35,1.73 -1.77,0 -3.22,-0.58 -4.35,-1.73 -1.14,-1.15 -1.7,-2.63 -1.7,-4.42l0 -11.13c0,-1.79 0.56,-3.26 1.7,-4.42 1.13,-1.15 2.58,-1.73 4.35,-1.73 1.77,0 3.22,0.58 4.35,1.73 1.14,1.16 1.7,2.63 1.7,4.42l0 11.13zm-1.65 -10.97c0,-1.42 -0.38,-2.59 -1.15,-3.49 -0.76,-0.91 -1.85,-1.36 -3.25,-1.36 -1.4,0 -2.49,0.45 -3.25,1.36 -0.77,0.9 -1.15,2.07 -1.15,3.49l0 10.81c0,1.42 0.38,2.59 1.15,3.5 0.76,0.9 1.85,1.35 3.25,1.35 1.4,0 2.49,-0.45 3.25,-1.35 0.77,-0.91 1.15,-2.08 1.15,-3.5l0 -10.81z"/>
   <path id="3" class="fil1" d="M62.77 26.83c0,1.29 -0.39,2.34 -1.18,3.14 -0.79,0.79 -1.81,1.19 -3.06,1.19 -1.27,0 -2.3,-0.4 -3.09,-1.19 -0.79,-0.8 -1.18,-1.85 -1.18,-3.14l0 -3.47c0,-1.29 0.39,-2.34 1.18,-3.13 0.79,-0.8 1.82,-1.2 3.09,-1.2 1.25,0 2.27,0.4 3.06,1.2 0.79,0.79 1.18,1.84 1.18,3.13l0 3.47zm-13.82 -11.36c0,1.27 -0.39,2.31 -1.18,3.11 -0.79,0.79 -1.8,1.19 -3.06,1.19 -1.27,0 -2.3,-0.4 -3.09,-1.19 -0.78,-0.8 -1.18,-1.84 -1.18,-3.11l0 -3.46c0,-1.3 0.4,-2.34 1.18,-3.14 0.79,-0.8 1.82,-1.2 3.09,-1.2 1.26,0 2.27,0.4 3.06,1.2 0.79,0.8 1.18,1.84 1.18,3.14l0 3.46zm12.4 7.96c0,-2.11 -0.94,-3.17 -2.82,-3.17 -1.9,0 -2.85,1.06 -2.85,3.17l0 3.33c0,2.12 0.95,3.17 2.85,3.17 1.88,0 2.82,-1.05 2.82,-3.17l0 -3.33zm-13.82 -11.36c0,-2.11 -0.94,-3.17 -2.82,-3.17 -1.89,0 -2.84,1.06 -2.84,3.17l0 3.33c0,2.1 0.95,3.14 2.84,3.14 1.88,0 2.82,-1.04 2.82,-3.14l0 -3.33zm-0.55 18.87l-1.46 0 10.75 -23.04 1.45 0 -10.74 23.04z"/>
  </g>
 </g>
</svg>
