<?xml version="1.0" encoding="UTF-8"?>
<!DOCTYPE svg PUBLIC "-//W3C//DTD SVG 1.0//EN" "http://www.w3.org/TR/2001/REC-SVG-20010904/DTD/svg10.dtd">
<!-- Creator: CorelDRAW 2017 -->
<svg xmlns="http://www.w3.org/2000/svg" xml:space="preserve" width="740px" height="450px" version="1.0" style="shape-rendering:geometricPrecision; text-rendering:geometricPrecision; image-rendering:optimizeQuality; fill-rule:evenodd; clip-rule:evenodd"
viewBox="0 0 113.92 69.27"
 xmlns:xlink="http://www.w3.org/1999/xlink">
 <defs>
  <style type="text/css">
   <![CDATA[
    .fil0 {fill:#FEFEFE}
    .fil1 {fill:#0064B4}
   ]]>
  </style>
 </defs>
 <g id="Слой_x0020_1">
  <metadata id="CorelCorpID_0Corel-Layer"/>
  <g id="_2602581591984">
   <rect class="fil0" width="113.92" height="69.27"/>
   <path class="fil1" d="M66.12 11.31c-0.62,-0.23 -1.02,-1.42 -1.97,-1.28 -0.45,0.07 -0.77,0.47 -0.71,1 0.08,0.6 1.95,2.2 2.4,2.66 0.42,0.43 0.29,0.61 0.29,1.4 0,0.56 0.03,1.12 -0.01,1.68 -1,-0.41 -3.19,-4.2 -4.32,-2.8 -0.59,0.72 0.21,1.35 0.55,1.69 0.48,0.47 3.7,3.45 3.78,3.99 0.14,0.98 -0.39,1.29 -0.88,1.7 -0.69,-0.3 -4.72,-4.63 -5.83,-5.7 -0.74,-0.72 -0.52,-0.48 -0.55,-1.78 -0.02,-0.71 -0.36,-1.32 -1.18,-1.09 -0.74,0.2 -0.63,1.03 -0.65,1.72 -0.84,0.05 -1.6,-0.04 -1.76,0.74 -0.2,0.96 0.66,1.08 1.47,1.09 1.23,0 1.28,0.43 2.08,1.23 0.58,0.58 1.09,1.09 1.67,1.67 0.59,0.59 3.1,2.95 3.36,3.45 -1.16,1.97 -2.31,0.5 -3.1,-0.27 -0.89,-0.88 -1.71,-1.69 -2.58,-2.58 -0.33,-0.33 -0.85,-1.05 -1.57,-0.63 -1.72,1 2.22,3.38 2.68,4.4 -0.54,0.01 -1.09,0 -1.63,0 -1.62,0.01 -1.25,-0.1 -3.1,-1.97 -0.21,-0.2 -0.54,-0.6 -0.91,-0.7 -0.49,-0.13 -0.94,0.18 -1.05,0.56 -0.3,1.01 0.95,1.43 1.23,2.11 -1,0.01 -3.41,-0.25 -3.85,0.4 -0.42,0.61 0,1.25 0.53,1.37 0.89,0.21 2.36,0.04 3.32,0.04 -0.25,0.71 -1.52,1.07 -1.24,2.11 0.1,0.38 0.51,0.67 0.99,0.58 0.38,-0.07 0.74,-0.48 0.98,-0.73 2.28,-2.29 1.49,-2.05 4.72,-1.95 -0.42,1.02 -4.26,3.25 -2.74,4.35 0.72,0.51 1.32,-0.26 1.65,-0.59 0.46,-0.45 3.47,-3.67 3.93,-3.76 0.79,-0.15 1.38,0.28 1.74,0.9 -0.32,0.56 -3.84,3.92 -4.63,4.71 -0.42,0.41 -0.76,0.73 -1.17,1.16 -0.77,0.8 -0.66,0.42 -1.82,0.5 -0.66,0.04 -1.21,0.51 -0.92,1.23 0.26,0.64 1.03,0.55 1.73,0.58 0.01,0.7 -0.1,1.46 0.56,1.71 0.73,0.29 1.22,-0.25 1.26,-0.98 0.08,-1.83 -0.21,-1.08 1.69,-2.97 0.56,-0.57 4.34,-4.45 4.69,-4.6 0.5,0.43 0.88,0.76 0.88,1.5 0,0.77 -1.5,1.95 -2.04,2.48 -0.49,0.49 -2,1.85 -2.32,2.34 -0.37,0.55 -0.04,1.27 0.55,1.36 0.7,0.11 1.14,-0.55 1.46,-0.87 0.33,-0.34 2.03,-2.12 2.33,-2.23 0.09,2.72 0.26,2.54 -1.13,3.94 -0.29,0.29 -1.22,1.14 -1.4,1.43 -0.44,0.7 0.12,1.59 1.03,1.33 0.57,-0.16 1.01,-1.04 1.51,-1.25 0.04,1.02 -0.49,4.89 1.36,3.92 0.75,-0.4 0.46,-2.9 0.47,-3.89 0.71,0.28 1.07,1.44 2.03,1.24 0.41,-0.08 0.72,-0.46 0.65,-0.99 -0.06,-0.44 -0.5,-0.77 -0.74,-1.01 -0.56,-0.57 -1.05,-1.05 -1.62,-1.61 -0.45,-0.44 -0.33,-0.56 -0.32,-1.34 0,-0.58 -0.01,-1.16 0,-1.75 0.96,0.43 2.6,3.14 3.67,3.09 0.73,-0.02 1.04,-0.81 0.67,-1.39 -0.46,-0.7 -3.02,-3.08 -3.94,-3.96 -0.72,-0.7 -0.47,-1.95 0.54,-2.31 0.47,0.29 4.83,4.72 5.78,5.71 0.75,0.78 0.52,0.55 0.54,1.73 0.02,0.72 0.38,1.39 1.23,1.09 0.65,-0.24 0.58,-0.97 0.6,-1.73 0.73,-0.01 1.45,0.07 1.7,-0.55 0.31,-0.78 -0.27,-1.22 -0.94,-1.26 -1.26,-0.06 -1.09,0.27 -1.82,-0.49 -1.02,-1.05 -5.43,-5.22 -5.78,-5.87 0.37,-0.64 0.73,-0.91 1.52,-0.91 0.65,0.01 0.96,0.57 1.31,0.92 0.86,0.85 2.7,2.96 3.52,3.47 0.62,0.37 1.25,-0.08 1.34,-0.57 0.12,-0.67 -0.47,-1.06 -0.86,-1.44 -0.48,-0.47 -2.06,-1.94 -2.25,-2.36 0.72,-0.05 2.6,-0.19 3.06,0.24 0.46,0.45 2.05,2.3 2.63,2.43 0.53,0.11 0.93,-0.27 1.03,-0.61 0.26,-0.96 -0.96,-1.4 -1.27,-2.06 0.73,-0.04 2.98,0.07 3.45,-0.1 0.78,-0.27 1.16,-1.73 -1.03,-1.73l-2.43 0.01c0.33,-0.66 1.45,-1.11 1.29,-2.02 -0.15,-0.82 -0.96,-0.99 -1.9,-0.03 -0.57,0.59 -1.09,1.07 -1.67,1.67 -0.47,0.49 -0.48,0.39 -1.36,0.38 -0.58,-0.01 -1.17,0 -1.76,-0.01 0.18,-0.57 1.73,-1.89 2.22,-2.38 0.3,-0.3 0.92,-0.74 0.86,-1.36 -0.07,-0.71 -0.89,-0.98 -1.46,-0.56 -0.57,0.41 -2.71,2.71 -3.39,3.38 -0.48,0.47 -0.64,0.93 -1.43,0.93l-0.1 0c-0.66,0 -1.07,-0.4 -1.32,-0.93 0.51,-0.79 3.69,-3.74 4.58,-4.64 0.41,-0.41 0.75,-0.74 1.16,-1.16 0.73,-0.74 0.47,-0.51 1.76,-0.55 0.72,-0.02 1.32,-0.37 1.06,-1.19 -0.22,-0.71 -0.97,-0.55 -1.7,-0.63 -0.16,-0.78 0.05,-1.48 -0.62,-1.71 -0.85,-0.3 -1.21,0.36 -1.23,1.07 -0.03,1.68 0.05,1.11 -1.72,2.89 -0.79,0.8 -1.53,1.53 -2.32,2.32 -0.4,0.4 -2,2.14 -2.38,2.26 -0.51,-0.44 -1.01,-0.71 -0.84,-1.7 0.08,-0.51 3.27,-3.47 3.76,-3.96 0.31,-0.32 1.1,-0.94 0.59,-1.67 -0.51,-0.74 -1.31,-0.19 -1.68,0.18 -0.48,0.47 -2.19,2.35 -2.67,2.55l-0.01 -2.36c0,-0.78 1.86,-1.99 2.51,-2.9 0.5,-0.72 -0.05,-1.64 -0.93,-1.44 -0.72,0.17 -0.87,0.99 -1.58,1.25l0.01 -2.68c0,-0.58 -0.06,-0.98 -0.48,-1.21 -0.51,-0.27 -1.04,-0.03 -1.23,0.38 -0.21,0.48 -0.09,2.82 -0.12,3.53zm-29.02 21.38c0.88,-0.03 1.75,0.04 1.77,-0.9 0.02,-0.99 -0.9,-0.89 -1.76,-0.93l-0.03 -3.62c0.85,-0.04 1.79,0.04 1.79,-0.92 0.01,-0.96 -0.91,-0.87 -1.75,-0.92l-0.04 -3.57c0.84,-0.06 1.72,0.03 1.79,-0.87 0.08,-1.04 -0.86,-0.96 -1.77,-1 -0.08,-0.99 -0.04,-2.44 -0.01,-3.45 0.03,-1.18 0.38,-1.97 0.95,-2.62 1.19,-1.35 3.47,-1.56 5.03,-0.3 1.52,1.24 1.29,3.21 1.29,5.65l0 21.15c0,3.31 -0.05,1.28 2.88,4.14 1.14,1.12 1.96,2.62 2.4,4.71 0.93,4.39 -1.82,7.85 -4.31,9.38 -3.43,2.11 -7.98,1.38 -10.54,-0.93 -4.19,-3.79 -4.42,-10.43 0.58,-14.19 0.81,-0.62 1.69,-0.61 1.7,-1.89 0.01,-1.08 -0.09,-2.44 0.02,-3.47 1.23,-0.21 3.74,0.18 4.77,-0.08 0.65,-0.16 0.9,-1.07 0.33,-1.53 -0.48,-0.39 -3.85,-0.23 -4.67,-0.23 -2.98,0 -2.12,0.1 -2.26,5.08 -0.75,0.66 -1.33,0.74 -2.5,2.04 -6.51,7.22 -1.36,18.22 7.9,18.27 10.11,0.06 14.93,-12.73 6.85,-19.35 -0.42,-0.34 -0.94,-0.62 -1.35,-0.97 -0.13,-2.72 0.01,-5.71 -0.01,-8.47 -0.01,-2.83 0.02,-5.67 0,-8.5 -0.01,-2.68 0.17,-5.9 -0.02,-8.51 -0.35,-4.57 -6.44,-7.13 -9.86,-2.66 -1.38,1.8 -1,4.97 -1,7.63 0,2.83 0,5.66 0,8.5 0,1.12 -0.13,3.23 0.01,4.24 0.09,0.58 0.56,1.07 1.28,0.78 0.63,-0.27 0.51,-0.97 0.54,-1.69zm7.86 17.33c-1.19,0.54 -0.1,2.61 -2.4,3.91 -0.67,0.39 -2.14,0.52 -2.41,0.73 -0.74,0.58 -0.28,1.7 0.99,1.58 4.29,-0.41 5.48,-4.88 4.86,-5.92 -0.18,-0.3 -0.6,-0.5 -1.04,-0.3zm19.79 -25.52c0.13,0.26 1.98,2.16 2.32,2.3 0.46,-0.37 0.8,-0.75 1.12,-1.08l1.13 -1.22 -2.22 -2.29c-0.36,0.17 -2.15,1.96 -2.35,2.29z"/>
  </g>
 </g>
</svg>
