<?xml version="1.0" encoding="UTF-8"?>
<!DOCTYPE svg PUBLIC "-//W3C//DTD SVG 1.0//EN" "http://www.w3.org/TR/2001/REC-SVG-20010904/DTD/svg10.dtd">
<!-- Creator: CorelDRAW 2017 -->
<svg xmlns="http://www.w3.org/2000/svg" xml:space="preserve" width="1003px" height="342px" version="1.0" style="shape-rendering:geometricPrecision; text-rendering:geometricPrecision; image-rendering:optimizeQuality; fill-rule:evenodd; clip-rule:evenodd"
viewBox="0 0 240.93 82.08"
 xmlns:xlink="http://www.w3.org/1999/xlink">
 <defs>
  <style type="text/css">
   <![CDATA[
    .fil0 {fill:#0064B4;fill-rule:nonzero}
   ]]>
  </style>
 </defs>
 <g id="Слой_x0020_1">
  <metadata id="CorelCorpID_0Corel-Layer"/>
  <polygon class="fil0" points="0,54.16 0,48.84 29.62,48.84 29.62,54.16 "/>
  <path id="1" class="fil0" d="M89.43 59.81c0,7.01 -2.13,12.47 -6.39,16.39 -4.26,3.92 -9.74,5.88 -16.45,5.88 -6.56,0 -11.91,-1.71 -16.05,-5.14 -4.15,-3.43 -6.45,-8.5 -6.9,-15.21l5.77 0c0.45,5.13 2.28,8.95 5.48,11.48 3.2,2.52 7.1,3.78 11.7,3.78 4.9,0 8.97,-1.54 12.21,-4.63 3.24,-3.09 4.86,-7.28 4.86,-12.55 0,-11.46 -5.84,-17.19 -17.52,-17.19l-1.36 0 0 -5.08 1.36 0c10.63,0 15.94,-5.39 15.94,-16.17 0,-5.13 -1.47,-9.12 -4.41,-11.99 -2.94,-2.86 -6.67,-4.29 -11.19,-4.29 -4.67,0 -8.39,1.3 -11.14,3.9 -2.75,2.6 -4.39,6.2 -4.92,10.8l-5.76 0c0.6,-6.19 2.88,-11.03 6.84,-14.53 3.96,-3.51 8.95,-5.26 14.98,-5.26 6.41,0 11.57,1.94 15.49,5.82 3.92,3.88 5.88,9.07 5.88,15.55 0,8.97 -3.81,15.07 -11.42,18.31 8.67,2.94 13,9.65 13,20.13z"/>
  <path id="2" class="fil0" d="M147.2 60.49c0,6.25 -1.98,11.4 -5.93,15.43 -3.96,4.03 -9.03,6.05 -15.21,6.05 -6.18,0 -11.25,-2.02 -15.21,-6.05 -3.95,-4.03 -5.93,-9.18 -5.93,-15.43l0 -38.9c0,-6.25 1.98,-11.4 5.93,-15.43 3.96,-4.03 9.03,-6.05 15.21,-6.05 6.18,0 11.25,2.02 15.21,6.05 3.95,4.03 5.93,9.18 5.93,15.43l0 38.9zm-5.76 -38.33c0,-4.98 -1.34,-9.05 -4.02,-12.21 -2.67,-3.17 -6.46,-4.75 -11.36,-4.75 -4.9,0 -8.69,1.58 -11.36,4.75 -2.68,3.16 -4.02,7.23 -4.02,12.21l0 37.76c0,4.98 1.34,9.05 4.02,12.21 2.67,3.17 6.46,4.75 11.36,4.75 4.9,0 8.69,-1.58 11.36,-4.75 2.68,-3.16 4.02,-7.23 4.02,-12.21l0 -37.76z"/>
  <path id="3" class="fil0" d="M240.93 66.93c0,4.52 -1.38,8.18 -4.13,10.97 -2.75,2.79 -6.31,4.18 -10.68,4.18 -4.45,0 -8.05,-1.39 -10.8,-4.18 -2.75,-2.79 -4.13,-6.45 -4.13,-10.97l0 -12.1c0,-4.52 1.38,-8.17 4.13,-10.96 2.75,-2.79 6.35,-4.19 10.8,-4.19 4.37,0 7.93,1.4 10.68,4.19 2.75,2.79 4.13,6.44 4.13,10.96l0 12.1zm-48.28 -39.68c0,4.44 -1.37,8.06 -4.12,10.85 -2.76,2.79 -6.32,4.18 -10.69,4.18 -4.45,0 -8.04,-1.39 -10.8,-4.18 -2.75,-2.79 -4.12,-6.41 -4.12,-10.85l0 -12.1c0,-4.52 1.37,-8.18 4.12,-10.97 2.76,-2.79 6.35,-4.18 10.8,-4.18 4.37,0 7.93,1.39 10.69,4.18 2.75,2.79 4.12,6.45 4.12,10.97l0 12.1zm43.3 27.81c0,-7.39 -3.28,-11.08 -9.83,-11.08 -6.64,0 -9.95,3.69 -9.95,11.08l0 11.64c0,7.39 3.31,11.08 9.95,11.08 6.55,0 9.83,-3.69 9.83,-11.08l0 -11.64zm-48.27 -39.68c0,-7.39 -3.28,-11.08 -9.84,-11.08 -6.63,0 -9.95,3.69 -9.95,11.08l0 11.64c0,7.31 3.32,10.97 9.95,10.97 6.56,0 9.84,-3.66 9.84,-10.97l0 -11.64zm-1.92 65.91l-5.09 0 37.53 -80.5 5.09 0 -37.53 80.5z"/>
 </g>
</svg>
