<?xml version="1.0" encoding="UTF-8"?>
<!DOCTYPE svg PUBLIC "-//W3C//DTD SVG 1.0//EN" "http://www.w3.org/TR/2001/REC-SVG-20010904/DTD/svg10.dtd">
<!-- Creator: CorelDRAW 2017 -->
<svg xmlns="http://www.w3.org/2000/svg" xml:space="preserve" width="740px" height="450px" version="1.0" style="shape-rendering:geometricPrecision; text-rendering:geometricPrecision; image-rendering:optimizeQuality; fill-rule:evenodd; clip-rule:evenodd"
viewBox="0 0 51.54 31.34"
 xmlns:xlink="http://www.w3.org/1999/xlink">
 <defs>
  <style type="text/css">
   <![CDATA[
    .fil0 {fill:#FEFEFE}
    .fil1 {fill:#0064B4}
   ]]>
  </style>
 </defs>
 <g id="Слой_x0020_1">
  <metadata id="CorelCorpID_0Corel-Layer"/>
  <g id="_2602581581872">
   <rect class="fil0" width="51.54" height="31.34"/>
   <path class="fil1" d="M15.4 23.4l1.74 3c0.52,0.8 0.49,0.6 1.53,0.23 0.28,-0.1 0.62,-0.19 0.96,-0.25 2.07,-0.32 3.8,0.59 4.97,2.05 0.13,0.16 0.27,0.34 0.41,0.52 0.95,1.2 0.93,0.91 1.75,-0.11 0.27,-0.32 0.53,-0.6 0.8,-0.89 1.26,-1.35 3.11,-1.96 5.06,-1.45 1.79,0.46 1.16,1.44 3.35,-2.49 0.77,-1.4 1.04,-1.48 0.11,-2.14 -1.17,-0.83 -2.43,-2.05 -3.05,-3.74 -0.66,-1.79 -0.22,-3.9 1.16,-5.12 1.28,-1.12 2.48,-1.15 2.37,-1.78l-0.91 -3.4c-0.07,-0.23 -0.09,-0.46 -0.28,-0.53 -0.49,-0.2 -4.98,0.48 -6.33,-3.08 -0.31,-0.82 -0.43,-0.83 -1.27,-0.83l-3.99 0c-1.08,0 -0.93,0.54 -1.31,1.28 -0.27,0.52 -0.61,0.97 -0.96,1.26 -0.85,0.71 -1.77,1.07 -3.17,1.22 -0.26,0.03 -0.94,0.05 -1.45,0.09 -0.8,0.07 -0.69,0.11 -0.9,0.83 -0.24,0.82 -0.51,1.93 -0.68,2.61 -0.16,0.62 -0.41,0.86 0.6,1.31 3.03,1.34 3.87,4.38 2.35,7.09 -0.89,1.58 -1.9,2.18 -2.74,2.89 -0.74,0.63 -0.56,0.58 -0.12,1.43zm1.67 -15.05c-0.15,0.37 -0.61,2.23 -0.63,2.63 0.78,0.27 2,1.25 2.53,1.96 1.67,2.24 1.38,5 -0.09,7.24 -0.74,1.11 -1.56,1.8 -2.51,2.6 0.12,0.45 1.38,2.32 1.57,2.86 0.6,-0.04 1.19,-0.46 2.57,-0.46 1.2,0.01 2.39,0.43 3.21,0.95 0.44,0.29 0.82,0.6 1.16,0.92 0.36,0.33 0.75,0.88 0.98,1.07l0.65 -0.74c0.25,-0.26 0.46,-0.43 0.73,-0.67 1.42,-1.26 3.4,-1.81 5.33,-1.37 0.4,0.09 0.76,0.24 1.16,0.3 0.15,-0.17 1.57,-2.64 1.62,-2.85 -1.1,-0.99 -1.55,-1.2 -2.47,-2.54 -0.74,-1.1 -1.23,-2.19 -1.23,-3.84 0.01,-1.53 0.35,-2.49 1.08,-3.45 0.5,-0.66 1.1,-1.19 1.83,-1.61 0.92,-0.53 0.81,-0.19 0.42,-1.74 -0.06,-0.28 -0.2,-1.13 -0.38,-1.27 -1.68,0 -2.98,-0.26 -4.25,-0.95 -1.19,-0.65 -1.76,-1.48 -2.4,-2.84l-4.18 0c-1,2.02 -2.01,3.05 -4.29,3.55 -0.88,0.2 -1.5,0.16 -2.41,0.25zm8.7 7.32c-0.45,0.1 -0.43,0.38 -0.46,0.86 -0.02,0.42 -0.02,0.86 -0.03,1.28l0.01 5.26c0.01,0.93 -0.14,2.1 0.7,1.91 0.58,-0.12 0.44,-1.39 0.44,-2.15 0.01,-1.6 0.04,-5.03 -0.05,-6.52 -0.03,-0.37 -0.17,-0.73 -0.61,-0.64zm-0.09 -5.01c-0.32,0.14 -0.35,0.31 -0.38,0.69 -0.03,0.36 -0.02,0.74 -0.02,1.11 0.01,0.55 -0.03,1.6 0.77,1.3 0.49,-0.18 0.4,-1.17 0.39,-1.79 0,-0.23 0,-0.78 -0.07,-0.99 -0.07,-0.22 -0.38,-0.46 -0.69,-0.32z"/>
  </g>
 </g>
</svg>
