<?xml version="1.0" encoding="UTF-8"?>
<!DOCTYPE svg PUBLIC "-//W3C//DTD SVG 1.0//EN" "http://www.w3.org/TR/2001/REC-SVG-20010904/DTD/svg10.dtd">
<!-- Creator: CorelDRAW 2017 -->
<svg xmlns="http://www.w3.org/2000/svg" xml:space="preserve" width="740px" height="450px" version="1.0" style="shape-rendering:geometricPrecision; text-rendering:geometricPrecision; image-rendering:optimizeQuality; fill-rule:evenodd; clip-rule:evenodd"
viewBox="0 0 43.83 26.66"
 xmlns:xlink="http://www.w3.org/1999/xlink">
 <defs>
  <style type="text/css">
   <![CDATA[
    .fil0 {fill:#FEFEFE}
    .fil1 {fill:#0064B4}
   ]]>
  </style>
 </defs>
 <g id="Слой_x0020_1">
  <metadata id="CorelCorpID_0Corel-Layer"/>
  <g id="_2602582109056">
   <rect class="fil0" width="43.83" height="26.66"/>
   <path class="fil1" d="M10.68 7.89l0 0.22c0.16,0.35 0.13,0.47 0.55,0.87l0.78 0.64c0.06,0.76 -0.15,1.92 -0.27,2.68 -0.16,0.95 -0.64,3.52 -0.66,4.45 -0.01,0.41 0.06,0.31 -0.05,0.64 -0.29,0.89 -0.23,1.72 -0.23,2.7 0.04,0.09 0.42,0.24 0.54,0.28 0.96,0.34 2.54,0.43 3.58,0.47 0.25,0.01 1.45,0.01 1.57,0.05l1.97 0 0.07 -0.83c0.21,0 1.71,0.2 2.11,0.24 3.73,0.37 6.99,0.47 10.66,-0.47 0.81,-0.21 1.87,-0.55 2.62,-0.88 0.61,-0.28 0.48,-0.2 0.66,-0.53l0 -0.17 -0.04 -0.07c-0.17,-0.33 -0.41,-0.34 -0.74,-0.18 -0.7,0.35 -1.96,0.75 -2.72,0.95 -3.81,0.96 -7.31,0.81 -11.19,0.36 -0.49,-0.06 -1.83,-0.26 -2.18,-0.28l-0.08 0.94c-0.3,0.05 -1.23,0 -1.59,0 -0.94,-0.02 -3.71,-0.11 -4.33,-0.43 -0.06,-0.44 0.02,-1.34 0.14,-1.73 0.95,0.03 1.94,0.18 2.86,0.31 4.65,0.68 9.86,1.54 14.52,0.76 0.88,-0.14 1.76,-0.35 2.57,-0.61 0.48,-0.17 1.83,-0.68 2.16,-0.99 -0.11,-0.78 -0.66,-1.66 -1.09,-2 -0.33,-0.27 -0.59,-0.36 -1.13,-0.43 -0.46,-0.06 -0.92,-0.09 -1.39,-0.15 -1.75,-0.2 -3.46,-0.62 -4.76,-1.41 0.13,-0.16 0.22,-0.34 0.04,-0.54 -0.17,-0.17 -0.38,-0.08 -0.58,0 -0.13,0.05 -0.15,0.1 -0.26,0.02 -0.14,-0.11 -0.55,-0.42 -0.62,-0.52 0.1,-0.08 0.19,-0.1 0.23,-0.26 0.03,-0.14 -0.02,-0.28 -0.12,-0.36 -0.27,-0.21 -0.5,0.07 -0.74,0.07 -0.11,-0.16 -0.56,-0.53 -0.62,-0.64 0.08,-0.08 0.15,-0.11 0.19,-0.24 0.03,-0.13 -0.02,-0.25 -0.08,-0.32 -0.19,-0.22 -0.4,-0.07 -0.64,-0.01l-0.35 -0.46c-0.38,-0.51 -0.19,-0.26 -0.22,-0.55 -0.03,-0.31 -0.33,-0.25 -0.41,-0.38 -0.33,-0.5 -0.51,-0.96 -0.95,-1.45 -0.66,-0.73 -1.66,-0.58 -2.54,-0.43 -0.27,0.05 -0.54,0.1 -0.8,0.16 -0.96,0.21 -2.09,0.54 -3,0.85 -0.49,0.17 -0.94,0.35 -1.4,0.52 -0.1,-0.11 -0.21,-0.9 -0.75,-1.32 -0.36,-0.28 -0.87,-0.12 -1.11,0.13 -0.13,0.14 -0.13,0.24 -0.18,0.33zm2.25 1.75c-0.02,0.21 0.01,0.32 0.04,0.5 -0.04,0.13 0.07,-0.09 -0.02,0.03 -0.04,0.06 -0.04,0.05 -0.05,0.13 0,0.08 -0.01,0.15 -0.01,0.23l-0.16 1.3c-0.09,0.55 -0.18,1.11 -0.27,1.67 -0.11,0.6 -0.56,2.92 -0.47,3.4 0.89,0.04 1.79,0.18 2.66,0.3 5.31,0.75 12.01,1.96 17.16,0.1 0.18,-0.06 0.36,-0.13 0.53,-0.2 0.17,-0.07 0.38,-0.18 0.54,-0.23 -0.06,-0.29 -0.37,-0.68 -0.56,-0.88 -0.25,-0.23 -0.71,-0.24 -1.13,-0.29 -1.64,-0.17 -3.19,-0.35 -4.7,-0.97 -0.58,-0.24 -0.92,-0.4 -1.43,-0.7 -0.15,-0.09 -0.31,-0.2 -0.44,-0.27 -0.57,0.29 -0.77,0.82 -0.86,0.92 -0.23,0.26 -0.95,0.07 -0.36,-0.75 0.3,-0.43 0.46,-0.45 0.6,-0.61 -0.07,-0.1 -0.26,-0.23 -0.36,-0.32 -0.12,-0.11 -0.26,-0.24 -0.37,-0.31 -0.2,0.09 -0.5,0.37 -0.62,0.55 -0.08,0.12 -0.14,0.3 -0.23,0.37 -0.23,0.19 -0.97,0.05 -0.3,-0.84 0.09,-0.11 0.2,-0.22 0.29,-0.31 0.06,-0.05 0.31,-0.25 0.33,-0.28 -0.09,-0.11 -0.24,-0.26 -0.34,-0.35 -0.13,-0.11 -0.22,-0.24 -0.34,-0.36 -0.2,0.07 -0.59,0.44 -0.69,0.59 -0.09,0.12 -0.16,0.33 -0.25,0.39 -0.16,0.12 -0.36,0.09 -0.48,-0.04 -0.34,-0.38 0.42,-1.1 0.74,-1.34 0.06,-0.05 0.14,-0.1 0.2,-0.15 -0.06,-0.11 -0.49,-0.6 -0.57,-0.79 -0.28,0.06 -0.85,0.55 -1.02,0.85 -0.05,0.1 -0.07,0.18 -0.14,0.25 -0.18,0.15 -0.43,0.09 -0.53,-0.07 -0.22,-0.32 0.28,-0.85 0.41,-0.99 0.4,-0.41 0.74,-0.53 0.87,-0.64 -0.09,-0.23 -0.61,-1.05 -0.78,-1.24 -0.12,-0.13 -0.18,-0.23 -0.43,-0.27 -0.64,-0.08 -1.76,0.17 -2.37,0.31 -1.41,0.33 -2.84,0.79 -4.09,1.31zm-1.53 -1.61c0,0.15 0.38,0.51 0.51,0.59 -0.04,-0.16 -0.29,-0.8 -0.51,-0.59z"/>
  </g>
 </g>
</svg>
