<?xml version="1.0" encoding="UTF-8"?>
<!DOCTYPE svg PUBLIC "-//W3C//DTD SVG 1.0//EN" "http://www.w3.org/TR/2001/REC-SVG-20010904/DTD/svg10.dtd">
<!-- Creator: CorelDRAW 2017 -->
<svg xmlns="http://www.w3.org/2000/svg" xml:space="preserve" width="740px" height="450px" version="1.0" style="shape-rendering:geometricPrecision; text-rendering:geometricPrecision; image-rendering:optimizeQuality; fill-rule:evenodd; clip-rule:evenodd"
viewBox="0 0 37.72 22.94"
 xmlns:xlink="http://www.w3.org/1999/xlink">
 <defs>
  <style type="text/css">
   <![CDATA[
    .fil0 {fill:#FEFEFE}
    .fil1 {fill:#0064B4}
   ]]>
  </style>
 </defs>
 <g id="Слой_x0020_1">
  <metadata id="CorelCorpID_0Corel-Layer"/>
  <g id="_2602582101760">
   <rect class="fil0" width="37.72" height="22.94"/>
   <path class="fil1" d="M9.18 11.3l0 0.53c0.19,0.33 0.13,0.4 0.58,0.78 1.51,1.28 1.42,0.72 0.79,2.45 -0.98,2.68 2.19,1.66 2.6,2.4 0.29,0.51 0.13,1.58 0.54,2.19 0.76,1.15 2.26,-0.21 2.98,-0.18 0.21,0.01 0.29,0.12 0.41,0.26 0.29,0.34 0.63,0.84 0.92,1.12 1.07,1.03 1.76,0.05 2.42,-0.8 0.29,-0.37 0.44,-0.62 0.79,-0.57 0.81,0.13 2.23,1.29 2.91,0.09 0.3,-0.52 0.26,-1.83 0.52,-2.17 0.46,-0.64 3.62,0.32 2.52,-2.45 -0.24,-0.6 -0.58,-1.14 -0.24,-1.47 0.42,-0.41 1.14,-0.82 1.44,-1.26 0.12,-0.18 0.13,-0.29 0.22,-0.44l0 -0.42 -0.12 -0.27c-0.05,-0.08 -0.08,-0.13 -0.13,-0.21 -0.12,-0.16 -0.18,-0.2 -0.34,-0.32 -1.52,-1.18 -1.41,-0.95 -0.8,-2.44 1.1,-2.67 -2.28,-1.68 -2.61,-2.46 -0.49,-1.16 0.24,-3.41 -2.55,-2.28 -1.1,0.45 -1.09,0.43 -1.72,-0.41 -0.16,-0.22 -0.44,-0.59 -0.62,-0.74 -0.21,-0.19 -0.55,-0.41 -0.99,-0.34 -1.1,0.19 -1.39,1.99 -2.25,1.76 -0.85,-0.23 -2.22,-1.17 -2.83,-0.04 -0.28,0.52 -0.27,1.87 -0.49,2.16 -0.44,0.61 -3.59,-0.29 -2.56,2.39 0.71,1.83 0.49,1.2 -0.81,2.39 -0.46,0.42 -0.33,0.4 -0.58,0.75zm5.26 -7.46c-0.41,0.85 -0.22,2 -0.74,2.54 -0.55,0.57 -2.12,0.33 -2.53,0.78 -0.09,0.68 0.99,1.82 0.53,2.72 -0.37,0.71 -1.74,1.3 -1.69,1.74 0.04,0.34 1.44,1.09 1.72,1.72 0.39,0.89 -0.68,2.06 -0.56,2.71 0.59,0.37 1.98,0.16 2.53,0.74 0.37,0.39 0.43,1.32 0.52,1.91 0.06,0.35 0.1,0.38 0.22,0.62 0.78,-0.03 1.86,-0.96 2.68,-0.58 0.73,0.33 1.35,1.7 1.75,1.72 0.4,0.01 1.01,-1.32 1.71,-1.7 0.78,-0.43 1.94,0.49 2.71,0.56 0.49,-0.55 0.19,-1.92 0.76,-2.51 0.63,-0.67 2,-0.35 2.53,-0.78 0.13,-0.61 -0.98,-1.89 -0.54,-2.73 0.36,-0.69 1.7,-1.33 1.71,-1.72 0.01,-0.41 -1.35,-1 -1.7,-1.72 -0.22,-0.46 -0.03,-0.97 0.12,-1.39 0.17,-0.44 0.33,-0.8 0.45,-1.27 -0.25,-0.38 -1.51,-0.35 -2.02,-0.52 -1.25,-0.42 -0.84,-1.97 -1.18,-2.68 -0.29,-0.6 -1.87,0.97 -2.89,0.37 -0.3,-0.19 -0.44,-0.39 -0.65,-0.63 -0.2,-0.23 -0.39,-0.47 -0.58,-0.71 -0.46,-0.6 -0.59,-0.35 -1.3,0.57 -0.32,0.42 -0.78,1.06 -1.63,0.88 -0.56,-0.12 -1.46,-0.63 -1.93,-0.64zm2.07 3.14c-2.24,0.48 -1.61,4.6 0.55,4.12 0.87,-0.19 1.49,-1.22 1.36,-2.35 -0.1,-0.93 -0.86,-2 -1.91,-1.77zm4.25 5.9c-2.06,0.38 -1.89,4.4 0.49,4.14 0.94,-0.1 1.48,-1.29 1.4,-2.33 -0.07,-0.94 -0.87,-1.99 -1.89,-1.81zm0.53 -5.91c-0.18,0.06 -0.32,0.4 -0.42,0.58 -1.31,2.26 -2.61,4.75 -3.87,7.05 -0.12,0.22 -0.97,1.76 -1.02,1.96 -0.1,0.32 0.19,0.58 0.51,0.47 0.19,-0.07 1.3,-2.19 1.47,-2.5 0.48,-0.87 0.93,-1.71 1.41,-2.57 0.14,-0.26 2.35,-4.29 2.42,-4.53 0.09,-0.35 -0.22,-0.55 -0.5,-0.46zm-0.47 6.75c-1.1,0.36 -0.73,2.89 0.38,2.48 1.06,-0.4 0.69,-2.82 -0.38,-2.48zm-4.23 -5.91c-1.07,0.35 -0.78,2.77 0.35,2.47 0.58,-0.15 0.66,-0.92 0.65,-1.43 -0.01,-0.53 -0.43,-1.23 -1,-1.04z"/>
  </g>
 </g>
</svg>
