<?xml version="1.0" encoding="UTF-8"?>
<!DOCTYPE svg PUBLIC "-//W3C//DTD SVG 1.0//EN" "http://www.w3.org/TR/2001/REC-SVG-20010904/DTD/svg10.dtd">
<!-- Creator: CorelDRAW 2017 -->
<svg xmlns="http://www.w3.org/2000/svg" xml:space="preserve" width="437px" height="437px" version="1.0" style="shape-rendering:geometricPrecision; text-rendering:geometricPrecision; image-rendering:optimizeQuality; fill-rule:evenodd; clip-rule:evenodd"
viewBox="0 0 440.52 440.52"
 xmlns:xlink="http://www.w3.org/1999/xlink">
 <defs>
  <style type="text/css">
   <![CDATA[
    .fil0 {fill:#FEFEFE}
    .fil1 {fill:#494949}
   ]]>
  </style>
 </defs>
 <g id="Слой_x0020_1">
  <metadata id="CorelCorpID_0Corel-Layer"/>
  <g id="_2602582095520">
   <rect class="fil0" y="-0.01" width="440.52" height="440.52"/>
   <path class="fil1" d="M78.93 168.15c-6.18,0.02 -24.47,-1.41 -29.45,1.84 -3.27,2.14 -4.88,7.25 -3.34,10.93 2.01,4.81 12.6,11.06 16.67,14.07 8.06,5.97 16.13,11.9 24.32,17.69 8.36,5.89 16.56,11.99 24.84,18.04 7.68,5.6 20.4,13.46 26.63,19.96l5.2 5.43 -0.9 7.47c-1.18,9.79 -8.28,27.32 -11.58,37.46 -7.33,22.56 -15.85,45.5 -22.11,68.3 -1.33,4.86 0.62,9.26 5.24,11.38 6.18,2.87 11.81,-2.76 16.6,-6.25 8.9,-6.48 17.79,-13 26.71,-19.42 10.72,-7.74 52.31,-41.37 62.66,-41.37l2.98 0 2.78 1.09c5.94,2.31 11.81,7.49 17.01,11.27l66.2 48.12c5.22,3.8 10.53,9.37 17.16,6.46 4.32,-1.91 6.37,-6.42 5.18,-10.94 -3,-11.42 -7.34,-22.67 -10.96,-33.93 -3.67,-11.38 -7.35,-22.76 -11.06,-34.12 -3.4,-10.37 -10.44,-27.85 -11.74,-37.92l-0.98 -7.56 5.32 -5.51c4.03,-4.18 9.44,-7.62 14.06,-10.89l61.01 -44.26c3.91,-2.83 15.12,-9.84 17.15,-14.19 1.8,-3.89 0.31,-8.62 -3.01,-11.21 -4.24,-3.31 -21.76,-1.94 -27.47,-1.94 -28.37,-0.04 -56.75,0.08 -85.1,0l-1.9 0 -1.82 -0.45c-12.17,-2.97 -14.29,-16.13 -17.52,-26.04l-27.32 -84.07c-3.91,-12.06 -15.4,-13.48 -19.42,-1.64l-21.87 67.38c-3.72,11.42 -7.05,22.95 -11.18,34.21l-3.34 9.11 -9.63 1.18c-24.11,2.95 -60.47,0.27 -86.02,0.32zm84.08 -16.09c-7.64,0.94 -70.56,0.19 -84.12,0.21 -13.47,0.03 -28.38,-1.94 -38.1,4.43 -7.65,4.99 -14.67,17.55 -9.3,30.36 4.06,9.67 14.09,14.93 21.86,20.69 8.32,6.16 16.19,11.95 24.62,17.9 8.52,6.03 16.02,11.61 24.63,17.9 4.64,3.38 21.88,15.37 24.53,18.14 -0.47,3.9 -8.98,28.5 -10.91,34.43 -6.01,18.48 -17.88,52.77 -22.33,69.01 -4.04,14.73 4.64,25.73 13.88,30.01 14.14,6.55 23.96,-1.5 32.63,-7.83 9.73,-7.08 17.71,-12.94 26.65,-19.38 2.29,-1.65 51.9,-38.36 53.37,-38.36 3.13,1.22 10.38,7.13 13.42,9.31l66.2 48.13c8.75,6.4 18.42,14.53 32.91,8.15 9.51,-4.19 17.84,-15.49 14.14,-29.52 -2.87,-10.95 -7.51,-23.27 -11.21,-34.76 -3.7,-11.51 -7.38,-22.91 -11.08,-34.19 -1.95,-5.97 -10.55,-30.91 -11.08,-35 2.67,-2.77 8.7,-6.75 11.99,-9.07l61 -44.26c7.74,-5.6 18.18,-11.65 22.22,-20.38 5.65,-12.15 0.04,-24.43 -7.64,-30.42 -9.3,-7.25 -23.38,-5.27 -37.22,-5.29 -28.36,-0.04 -56.73,0.07 -85.08,0 -2.09,-0.51 -5.02,-12 -6.16,-15.51l-27.33 -84.07c-8.95,-28.21 -41.16,-26.65 -49.64,-1.64l-21.88 67.38c-3.64,11.17 -7.04,22.95 -10.97,33.63z"/>
  </g>
 </g>
</svg>
