<?xml version="1.0" encoding="UTF-8"?>
<!DOCTYPE svg PUBLIC "-//W3C//DTD SVG 1.0//EN" "http://www.w3.org/TR/2001/REC-SVG-20010904/DTD/svg10.dtd">
<!-- Creator: CorelDRAW 2017 -->
<svg xmlns="http://www.w3.org/2000/svg" xml:space="preserve" width="437px" height="437px" version="1.0" style="shape-rendering:geometricPrecision; text-rendering:geometricPrecision; image-rendering:optimizeQuality; fill-rule:evenodd; clip-rule:evenodd"
viewBox="0 0 359.48 359.48"
 xmlns:xlink="http://www.w3.org/1999/xlink">
 <defs>
  <style type="text/css">
   <![CDATA[
    .fil0 {fill:#FEFEFE}
    .fil1 {fill:#494949}
   ]]>
  </style>
 </defs>
 <g id="Слой_x0020_1">
  <metadata id="CorelCorpID_0Corel-Layer"/>
  <g id="_2602584324576">
   <rect class="fil0" y="-0.01" width="359.48" height="359.48"/>
   <path class="fil1" d="M74.56 143.47c1.48,22.7 6.21,32.57 16.57,52.02 8.94,16.77 43.37,68.88 53.62,84.07 4.68,6.92 9.28,13.72 13.86,20.56l10.59 15.01c2.11,2.85 1.79,2.66 4.36,4.56l3.47 0c2.48,-1.49 1.01,0.81 4.31,-3.88 7.74,-10.99 16.77,-24.72 23.97,-35.77l27.03 -41.23c6.33,-9.36 13.57,-21.14 19.95,-30.94 12.96,-19.9 21.58,-34.94 23.29,-61.75 0.59,-22.82 -4.8,-42.16 -16.3,-60.21 -10.05,-15.8 -24.93,-28.59 -42.35,-36.62 -21.16,-9.75 -43.61,-11.55 -66.23,-6.39 -18.7,4.26 -35.82,13.34 -49.52,28.89 -18.12,20.54 -27.02,42.72 -26.62,71.68zm100.84 158.1l31.71 -47.69c3.69,-5.41 6.92,-10.77 10.57,-16.19 7.1,-10.54 13.91,-21.13 20.98,-31.97 6.88,-10.54 14.01,-20.99 19.09,-34.16 11.53,-29.86 4.09,-62.47 -11.64,-83.66 -11.97,-16.11 -27.14,-26.57 -47.11,-32.32 -14.56,-4.2 -33.19,-3.79 -47.67,0.18 -6.87,1.88 -13.21,4.51 -18.89,7.55 -12.15,6.51 -21.61,15.36 -28.46,24.81 -15.83,21.78 -23.36,53.55 -11.4,83.58 3.92,9.84 13.39,24.69 19.19,33.75 17.64,27.57 34.2,53.19 52.36,80.33l8.06 11.94c1.12,1.64 1.97,3.33 3.21,3.85zm-5.44 -200.28c-17.12,2.07 -29.1,12.97 -35.11,28.57 -9.72,25.22 10.55,59.31 45.6,55.85 6.14,-0.6 11.16,-2.85 15.82,-5.33 4.85,-2.6 8.21,-6.27 11.33,-9.84 7.05,-8.05 11.16,-17.66 9.69,-32.07 -2.24,-21.93 -22.19,-40.24 -47.33,-37.18zm0.08 13.32c-8.3,1.23 -15.01,6.69 -18.58,11.27 -4.87,6.25 -6.93,13.15 -5.79,23.48 0.87,7.94 7.15,14.95 11.5,18.34 5.98,4.65 13.37,7.08 23.14,5.63 24.42,-3.62 34.17,-36.3 13.03,-52.97 -5.66,-4.47 -13.57,-7.18 -23.3,-5.75z"/>
  </g>
 </g>
</svg>
