<?xml version="1.0" encoding="UTF-8"?>
<!DOCTYPE svg PUBLIC "-//W3C//DTD SVG 1.0//EN" "http://www.w3.org/TR/2001/REC-SVG-20010904/DTD/svg10.dtd">
<!-- Creator: CorelDRAW 2017 -->
<svg xmlns="http://www.w3.org/2000/svg" xml:space="preserve" width="437px" height="437px" version="1.0" style="shape-rendering:geometricPrecision; text-rendering:geometricPrecision; image-rendering:optimizeQuality; fill-rule:evenodd; clip-rule:evenodd"
viewBox="0 0 131.07 131.08"
 xmlns:xlink="http://www.w3.org/1999/xlink">
 <defs>
  <style type="text/css">
   <![CDATA[
    .fil0 {fill:#FEFEFE}
    .fil1 {fill:#494949}
   ]]>
  </style>
 </defs>
 <g id="Слой_x0020_1">
  <metadata id="CorelCorpID_0Corel-Layer"/>
  <g id="_2566287973200">
   <rect class="fil0" width="131.07" height="131.07"/>
   <path class="fil1" d="M5.63 18.75l0 1.12c0.53,0.9 0.59,1.55 1.73,1.92 0.9,0.28 9.61,0.14 10.93,0.14 2.72,0 4.14,0.12 5.75,1.54 1.71,1.5 1.72,2.39 2.47,4.86 2.29,7.59 4.41,15.06 6.68,22.68 2.25,7.57 4.44,15.21 6.61,22.78 1.19,4.13 1.72,7.46 3.76,10.92 5.22,8.87 12.43,7.18 22.21,7.18l29.37 0c2.39,0 4.9,0.45 5.69,-1.67 0.39,-1.05 -0.03,-2.24 -0.61,-2.79 -0.75,-0.7 -1.64,-0.71 -2.93,-0.71l-36.72 0c-5.13,0 -8.37,0.8 -11.58,-3.14 -0.62,-0.76 -2.35,-3.7 -2.39,-4.79 2.09,-0.17 12.52,-0.02 15.49,-0.02 10.39,0 20.77,0 31.15,0 5.61,0 9.58,0.36 12.27,-3.49 2.51,-3.58 8.03,-16.47 10.1,-21.17l7.21 -16.19c1.69,-3.61 1.34,-4.78 1.82,-6l0 -2.04c-0.23,-0.45 -0.28,-1.16 -0.49,-1.68 -0.23,-0.58 -0.48,-1.01 -0.82,-1.46 -2.44,-3.23 -7.12,-2.44 -11.22,-2.45 -21.21,0 -42.65,0.16 -63.82,-0.01 -1.5,-0.02 -3.06,-0.05 -4.56,-0.01 -3.15,0.07 -3.61,3.7 -1.34,4.9 0.93,0.48 3.04,0.29 4.26,0.29l63.68 0.02c1.4,0 8.13,-0.32 8.8,0.32 1.28,1.19 -0.96,5.93 -1.47,7.02 -1.91,4.1 -3.77,8.47 -5.61,12.61 -1.9,4.29 -7.75,17.93 -10.1,21.79 -0.67,1.1 -1.02,1.86 -2.37,2.18 -1.74,0.42 -15.12,0.2 -17.99,0.2l-27.35 0c-2.85,0 -6.27,0.17 -9.06,-0.02l-5.33 -19.22c-2.73,-9.41 -5.36,-19.23 -8.04,-28.77 -1.03,-3.69 -1.3,-6.28 -4.49,-7.8 -2.94,-1.41 -7.72,-1.03 -11.31,-1.03 -1.34,0 -7.95,-0.23 -8.93,0.25 -1,0.5 -0.92,0.93 -1.45,1.74zm46.43 75.84c-6.04,0.95 -11.3,6.57 -10.17,13.78 0.93,5.93 6.46,11.29 13.81,10.13 5.89,-0.93 11.22,-6.52 10.1,-13.77 -0.92,-5.93 -6.57,-11.26 -13.74,-10.14zm44.05 0c-6,0.92 -11.25,6.43 -10.23,13.63 0.87,6.11 6.58,11.36 13.75,10.29 10.09,-1.49 14.16,-14.27 5.89,-21.32 -2.1,-1.79 -5.68,-3.17 -9.41,-2.6zm-43.61 4.99c-4.13,0.92 -6.46,4.71 -5.63,8.42 0.73,3.27 4,6.46 8.4,5.53 3.35,-0.71 6.41,-4.07 5.55,-8.33 -0.67,-3.35 -4.06,-6.57 -8.32,-5.62zm44.15 -0.03c-3.54,0.68 -6.58,3.95 -5.77,8.31 0.65,3.44 4.03,6.54 8.34,5.69 3.48,-0.69 6.39,-4.07 5.64,-8.25 -0.59,-3.33 -3.93,-6.58 -8.21,-5.75z"/>
  </g>
 </g>
</svg>
