<?xml version="1.0" encoding="UTF-8"?>
<!DOCTYPE svg PUBLIC "-//W3C//DTD SVG 1.0//EN" "http://www.w3.org/TR/2001/REC-SVG-20010904/DTD/svg10.dtd">
<!-- Creator: CorelDRAW 2017 -->
<svg xmlns="http://www.w3.org/2000/svg" xml:space="preserve" width="437px" height="437px" version="1.0" style="shape-rendering:geometricPrecision; text-rendering:geometricPrecision; image-rendering:optimizeQuality; fill-rule:evenodd; clip-rule:evenodd"
viewBox="0 0 78.94 78.94"
 xmlns:xlink="http://www.w3.org/1999/xlink">
 <defs>
  <style type="text/css">
   <![CDATA[
    .fil0 {fill:#FEFEFE}
    .fil1 {fill:#494949}
   ]]>
  </style>
 </defs>
 <g id="Слой_x0020_1">
  <metadata id="CorelCorpID_0Corel-Layer"/>
  <g id="_2602580320608">
   <rect class="fil0" width="78.94" height="78.94"/>
   <path class="fil1" d="M12.27 64.84c1.39,-8.01 6.08,-15.04 13.1,-19.08 0.92,-0.53 2.01,-1.03 3.12,-1.46 1.56,-0.61 0.84,-0.26 3.42,0.52 2.59,0.78 5.37,0.91 8.16,0.36 1.3,-0.26 2.35,-0.65 3.48,-1.13 0.96,-0.42 5.53,2.33 6.21,2.8l2.66 2c0.46,-0.54 1.86,-1.77 2.08,-2.14 -0.12,-0.23 -0.53,-0.53 -0.77,-0.73 -0.29,-0.22 -0.54,-0.44 -0.83,-0.65 -0.56,-0.44 -1.15,-0.87 -1.77,-1.26 -0.63,-0.39 -1.23,-0.76 -1.9,-1.13 -0.5,-0.27 -1.71,-0.76 -2.01,-1.04 0.14,-0.21 0.63,-0.6 0.85,-0.79 1.95,-1.64 3.72,-4.41 4.61,-6.93 2.52,-7.04 0.05,-14.47 -5.56,-18.99 -4.64,-3.73 -11.01,-4.53 -16.5,-2.46 -1.64,0.62 -3.07,1.5 -4.26,2.4 -5.63,4.25 -8.14,12.04 -5.68,19.01 0.92,2.61 2.61,5.18 4.63,6.98 0.26,0.24 0.65,0.5 0.86,0.78 -0.18,0.18 -1.46,0.76 -1.71,0.89 -0.59,0.32 -1.09,0.59 -1.65,0.94 -7.26,4.55 -12.36,12.4 -13.6,21.01 -0.55,3.01 2.6,3.67 3.06,0.1zm23.18 -50.14c-3.73,0.47 -6.95,1.95 -9.24,4.7 -2.05,2.46 -3.82,5.94 -3.38,10.45 0.39,4.12 2.53,7.34 4.7,9.2 2.38,2.02 6.07,3.83 10.47,3.37 7.73,-0.79 13.28,-7.57 12.56,-15.15 -0.54,-5.65 -4.3,-10.02 -9.07,-11.78 -1.78,-0.65 -3.97,-1.05 -6.04,-0.79zm14.07 51.53l20.92 -20.94c2.08,-2.07 0.12,-4.83 -2.72,-1.98 -1.75,1.75 -20.16,20.25 -20.63,20.61 -0.32,-0.13 -9.26,-9.17 -10.32,-10.23 -0.43,-0.43 -1.08,-1.37 -2.1,-1.29 -0.88,0.06 -1.62,0.85 -1.53,1.82 0.09,0.83 1.06,1.57 1.48,1.99l10.2 10.21c1.61,1.61 3.13,1.38 4.7,-0.19zm14.73 -0.9c-0.1,-0.68 -0.42,-2.86 -0.67,-3.32 -0.49,0.22 -1.9,1.96 -2.52,2.42l0.16 1.35c0.34,2.91 3.43,2.21 3.03,-0.45z"/>
  </g>
 </g>
</svg>
